PathFileType	4	(X/Y/Z)	OpenSim_Sub01_CSStiffKnee_Magnet.trc
DataRate	CameraRate	NumFrames	NumMarkers	Units	OrigDataRate	OrigDataStartFrame	OrigNumFrames
100	100	20	8	m	100	3364	5381
Frame#	Time	torso_imu_offset_imu	pelvis_imu_offset_imu	tibia_r_imu_offset_imu	femur_r_imu_offset_imu	tibia_l_imu_offset_imu	femur_l_imu_offset_imu	toes_r_imu_offset_imu	toes_l_imu_offset_imu
				X1	Y1	Z1	X2	Y2	Z2	X3	Y3	Z3	X4	Y4	Z4	X5	Y5	Z5	X6	Y6	Z6	X7	Y7	Z7	X8		Y8	Z8	

3364	33.63000000	-0.93052546	-0.06744261	0.04278158	-0.68593880	0.09048469	-0.62998961	-0.15182484	-0.79915568	-0.06560876	-0.64004607	-0.52747175	0.02843974	-0.62524013	0.46534625	0.19510395	-0.48616038	-0.18514727	0.25363369	-0.75733873	-0.29142020	0.13058312	-0.69055271	-0.15813996	-0.38083312
3365	33.64000000	-0.93090518	-0.06871676	0.04389000	-0.68681988	0.09097635	-0.62845411	-0.13724866	-0.80443010	-0.05827940	-0.64553179	-0.51710399	0.03017875	-0.61724730	0.46930585	0.19954056	-0.48229128	-0.17564472	0.25872012	-0.75427564	-0.29029648	0.15078138	-0.69115398	-0.15872848	-0.37610266
3366	33.65000000	-0.93089147	-0.07141262	0.04402990	-0.68696656	0.09429793	-0.62839351	-0.12707268	-0.80573142	-0.05264590	-0.65043386	-0.50815336	0.03223182	-0.61183666	0.47031852	0.20619982	-0.47665574	-0.16718755	0.26798570	-0.75690694	-0.27831714	0.16396891	-0.68951254	-0.15854581	-0.37347507
3367	33.66000000	-0.93022237	-0.07461159	0.04322227	-0.68633144	0.10027346	-0.63014898	-0.12088930	-0.80530287	-0.05298765	-0.65637607	-0.49980350	0.03254405	-0.60865392	0.47199330	0.21219075	-0.47226085	-0.15862502	0.27549739	-0.76134423	-0.26030846	0.17154114	-0.68916411	-0.15848870	-0.37209603
3368	33.67000000	-0.92898711	-0.07776109	0.04188667	-0.68499863	0.10812544	-0.63319572	-0.11852828	-0.80466658	-0.06011181	-0.66408261	-0.49126869	0.03056777	-0.60702330	0.47625206	0.21592335	-0.47059591	-0.14947066	0.27800136	-0.76464829	-0.24057621	0.17426778	-0.69180646	-0.15936180	-0.37098575
3369	33.68000000	-0.92805427	-0.08115086	0.04131545	-0.68335244	0.11576462	-0.63507835	-0.12037958	-0.80365733	-0.06703490	-0.67225408	-0.48185642	0.02913145	-0.60558868	0.48117819	0.21877641	-0.46971187	-0.14076545	0.27833783	-0.76610078	-0.22213863	0.17147684	-0.69496388	-0.16174826	-0.36891640
3370	33.69000000	-0.92827910	-0.08508504	0.04270733	-0.68182251	0.12113266	-0.63336006	-0.12675711	-0.80191719	-0.06649986	-0.67944836	-0.47104272	0.03111224	-0.60303143	0.48458221	0.22232814	-0.46741612	-0.13367118	0.27986896	-0.76540877	-0.20764259	0.16249473	-0.69591212	-0.16603963	-0.36483307
3371	33.70000000	-0.92929082	-0.08883956	0.04507518	-0.68088725	0.12432261	-0.62849264	-0.13640716	-0.79945567	-0.05930749	-0.68557604	-0.45991285	0.03517372	-0.59937089	0.48681892	0.22606856	-0.46380433	-0.12846296	0.28283224	-0.76356889	-0.19769928	0.14864529	-0.69519108	-0.17095907	-0.35981247
3372	33.71000000	-0.92999705	-0.09108765	0.04614769	-0.68105237	0.12669569	-0.62263179	-0.14715653	-0.79649895	-0.05100495	-0.69134489	-0.45049484	0.03750459	-0.59541466	0.48974050	0.22826067	-0.46032013	-0.12489031	0.28562539	-0.76233391	-0.19171915	0.13242571	-0.69525986	-0.17425218	-0.35618287
3373	33.72000000	-0.92965272	-0.09131823	0.04478341	-0.68251654	0.12940815	-0.61792418	-0.15795568	-0.79324906	-0.04564313	-0.69727246	-0.44342693	0.03658065	-0.59176253	0.49444916	0.22817880	-0.45799295	-0.12217361	0.28738615	-0.76249135	-0.18914873	0.11528824	-0.69724082	-0.17506629	-0.35501951
3374	33.73000000	-0.92830854	-0.09085755	0.04239882	-0.68479258	0.13312236	-0.61644705	-0.17028880	-0.78984787	-0.04379738	-0.70342896	-0.43621914	0.03605209	-0.58852787	0.50033050	0.22738930	-0.45688914	-0.11836760	0.28895661	-0.76265314	-0.18954957	0.09631988	-0.69921829	-0.17570461	-0.35456570
3375	33.74000000	-0.92618364	-0.09123380	0.04068935	-0.68724966	0.13832957	-0.61982603	-0.18581636	-0.78633492	-0.04561297	-0.70979633	-0.42631479	0.03973385	-0.58574076	0.50652802	0.22758465	-0.45684729	-0.11165809	0.29138890	-0.76133450	-0.19248275	0.07439422	-0.69913092	-0.17857385	-0.35292299
3376	33.75000000	-0.92412399	-0.09349298	0.04065662	-0.68873215	0.14444441	-0.62512119	-0.20447947	-0.78177731	-0.05164980	-0.71606991	-0.41483808	0.04591359	-0.58325045	0.51208338	0.22855756	-0.45669962	-0.10321151	0.29552328	-0.75909106	-0.19734354	0.04948625	-0.69765715	-0.18274088	-0.35068557
3377	33.76000000	-0.92334124	-0.09839065	0.04288872	-0.68778077	0.15024841	-0.62671467	-0.22520662	-0.77467287	-0.06270593	-0.72177675	-0.40507597	0.04963093	-0.58079996	0.51598162	0.22898409	-0.45469048	-0.09594579	0.30206779	-0.75767822	-0.20342828	0.02222021	-0.69708641	-0.18530924	-0.34991146
3378	33.77000000	-0.92418283	-0.10540082	0.04706458	-0.68419243	0.15494339	-0.62224634	-0.24726973	-0.76444792	-0.07822571	-0.72660797	-0.39848359	0.04858849	-0.57821803	0.51793252	0.22838935	-0.45027640	-0.09132352	0.31020519	-0.75802652	-0.20979501	-0.00686690	-0.69859814	-0.18484333	-0.35126501
3379	33.78000000	-0.92505736	-0.11114644	0.05084652	-0.68057570	0.15868732	-0.61670209	-0.27073622	-0.75261686	-0.09462608	-0.73062559	-0.39236632	0.04652447	-0.57552780	0.51926465	0.22822524	-0.44563569	-0.08750960	0.31571875	-0.75919142	-0.21497299	-0.03745160	-0.70084869	-0.18322367	-0.35225871
3380	33.79000000	-0.92430854	-0.11228592	0.05193459	-0.67962079	0.16175566	-0.61554477	-0.29570210	-0.74083901	-0.10806086	-0.73399058	-0.38380677	0.04751438	-0.57279009	0.52143096	0.22998981	-0.44304189	-0.08237402	0.31457924	-0.75999065	-0.21754188	-0.06923107	-0.70230926	-0.18252232	-0.35035473
3381	33.80000000	-0.92231879	-0.10982619	0.05123582	-0.68093328	0.16430139	-0.61889980	-0.32144717	-0.72935272	-0.11619634	-0.73736732	-0.37338420	0.05068536	-0.57018341	0.52490720	0.23296682	-0.44194964	-0.07534850	0.30944177	-0.75940637	-0.21734073	-0.10181767	-0.70306456	-0.18215699	-0.34689876
3382	33.81000000	-0.92067007	-0.10733383	0.05154232	-0.68230142	0.16640646	-0.62374581	-0.34677318	-0.71755852	-0.11759928	-0.74171480	-0.36373454	0.05225447	-0.56795375	0.52959016	0.23513897	-0.44015534	-0.06678907	0.30688998	-0.75652129	-0.21494862	-0.13477267	-0.70414855	-0.17998739	-0.34551821
3383	33.82000000	-0.92028170	-0.10718553	0.05422010	-0.68200586	0.16840822	-0.62743500	-0.37120574	-0.70493616	-0.11259299	-0.74750085	-0.35620586	0.05035360	-0.56592945	0.53484617	0.23559867	-0.43643450	-0.05769614	0.31041141	-0.75115663	-0.21034202	-0.16743194	-0.70605207	-0.17554380	-0.34789707
